<svg xmlns="http://www.w3.org/2000/svg" viewBox="0 0 24 24" fill="none" stroke="#3eaf7c" stroke-width="2" stroke-linecap="round" stroke-linejoin="round">
  <path d="M16 21v-2a4 4 0 0 0-4-4H5a4 4 0 0 0-4 4v2"></path>
  <circle cx="8.5" cy="7" r="4"></circle>
  <line x1="20" y1="8" x2="20" y2="14"></line>
  <line x1="23" y1="11" x2="17" y2="11"></line>
</svg>
<svg xmlns="http://www.w3.org/2000/svg" viewBox="0 0 24 24" fill="none" stroke="#3eaf7c" stroke-width="1.5" stroke-linecap="round" stroke-linejoin="round">
  <path d="M12 2C6.48 2 2 6.48 2 12s4.48 10 10 10 10-4.48 10-10S17.52 2 12 2zm0 16.5c-.83 0-1.5-.67-1.5-1.5s.67-1.5 1.5-1.5 1.5.67 1.5 1.5-.67 1.5-1.5 1.5zm1-4.5h-2V7h2v7z"/>
</svg>